PathFileType	4	(X/Y/Z)	/Users/itak/Documents/Research/Walk-IL/dataset/trc/00233_00009.trc
DataRate	CameraRate	NumFrames	NumMarkers	Units	OrigDataRate	OrigDataStartFrame	OrigNumFrames
100.000000	100.000000	4	53	mm	100.000000	535	857
Frame#	Time	RPSI			LPSI			L3			STRN			T10			C7			CLAV			RBAK			LBAK			LSHO			LUPA			LAEL			LAOL			LWTS			LWPS			LFRA			LIFD			LHPS			LHTS			RSHO			RUPA			RAEL			RAOL			RWTS			RWPS			RFRA			RIFD			RHTS			RHPS			RBHD			LFHD			RFHD			LBHD			LHIP			RHIP			RASI			LASI			LKNE			LTHI			LANK			LTIP			LTOE			LMT1			LMT5			LHEE			RKNE			RTHI			RANK			RTIP			RTOE			RMT1			RMT5			RHEE			
		X1	Y1	Z1	X2	Y2	Z2	X3	Y3	Z3	X4	Y4	Z4	X5	Y5	Z5	X6	Y6	Z6	X7	Y7	Z7	X8	Y8	Z8	X9	Y9	Z9	X10	Y10	Z10	X11	Y11	Z11	X12	Y12	Z12	X13	Y13	Z13	X14	Y14	Z14	X15	Y15	Z15	X16	Y16	Z16	X17	Y17	Z17	X18	Y18	Z18	X19	Y19	Z19	X20	Y20	Z20	X21	Y21	Z21	X22	Y22	Z22	X23	Y23	Z23	X24	Y24	Z24	X25	Y25	Z25	X26	Y26	Z26	X27	Y27	Z27	X28	Y28	Z28	X29	Y29	Z29	X30	Y30	Z30	X31	Y31	Z31	X32	Y32	Z32	X33	Y33	Z33	X34	Y34	Z34	X35	Y35	Z35	X36	Y36	Z36	X37	Y37	Z37	X38	Y38	Z38	X39	Y39	Z39	X40	Y40	Z40	X41	Y41	Z41	X42	Y42	Z42	X43	Y43	Z43	X44	Y44	Z44	X45	Y45	Z45	X46	Y46	Z46	X47	Y47	Z47	X48	Y48	Z48	X49	Y49	Z49	X50	Y50	Z50	X51	Y51	Z51	X52	Y52	Z52	X53	Y53	Z53	

536	5.350000000000001	121.7844772338867	1034.883911132812	-669.0729370117188	161.9932403564453	1032.353271484375	-555.1712646484375	150.9721221923828	1119.047241210938	-597.455810546875	-83.97123718261719	1297.11083984375	-512.0292358398438	150.8933563232422	1246.423583984375	-603.9461059570312	85.90204620361328	1506.3251953125	-583.6702880859375	-63.7121696472168	1414.718627929688	-526.7448120117188	139.9722747802734	1366.21923828125	-674.079833984375	144.0798187255859	1473.838256835938	-486.7477111816406	79.82673645019531	1474.494140625	-402.662353515625	150.2156219482422	1363.963012695312	-338.5392150878906	179.9704437255859	1159.15380859375	-304.1309204101562	225.7667083740234	1146.888305664062	-377.7453308105469	104.1997756958008	913.874755859375	-307.6597595214844	163.1761016845703	907.2748413085938	-246.9923553466797	180.3888702392578	1052.400512695312	-277.927978515625	137.9578094482422	724.912109375	-300.4218444824219	161.1282043457031	817.5377197265625	-241.6144561767578	98.84185791015625	810.82861328125	-272.5889282226562	-21.73756217956543	1454.815063476562	-721.2117309570312	-23.14505577087402	1390.26123046875	-789.5961303710938	-10.57034015655518	1115.372192382812	-846.6976928710938	49.00936508178711	1104.258422851562	-773.263671875	-123.9911270141602	893.9315795898438	-782.883544921875	-92.22519683837891	886.1415405273438	-860.4193725585938	-38.18344497680664	1047.310424804688	-855.6950073242188	-132.1873779296875	701.4758911132812	-788.087158203125	-165.1574096679688	773.5230102539062	-796.0734252929688	-129.1903839111328	778.4650268554688	-858.498779296875	-0.8169780969619751	1667.32373046875	-621.0042724609375	-146.8182220458984	1675.802734375	-446.7593383789062	-189.0379486083984	1670.713500976562	-537.2437133789062	14.15403938293457	1671.821899414062	-481.3758239746094	114.1446838378906	960.9840698242188	-392.2149047851562	-8.59552001953125	1003.338684082031	-735.8563842773438	-85.83001708984375	1041.066528320312	-666.5581665039062	4.418031215667725	1009.301452636719	-400.2336120605469	17.42287254333496	477.9512023925781	-407.9602966308594	42.37029266357422	621.71142578125	-390.8061218261719	357.2880859375	143.9317321777344	-539.4855346679688	179.8549346923828	323.4960327148438	-459.1923522949219	172.3900451660156	44.22836685180664	-576.6649169921875	222.8920288085938	85.23586273193359	-622.4013671875	262.7768249511719	61.04965591430664	-520.6593627929688	388.3318786621094	201.2681121826172	-586.4053344726562	-122.7605743408203	524.3331909179688	-662.9204711914062	-99.137451171875	787.3758544921875	-716.4949951171875	-66.55295562744141	27.67541313171387	-680.0411987304688	-134.1896514892578	401.8870849609375	-643.599853515625	-236.9878692626953	42.19560241699219	-545.9341430664062	-168.4728851318359	41.36178207397461	-532.7796630859375	-175.7442932128906	29.4210262298584	-655.0913696289062	14.70294857025146	30.03098106384277	-653.2913818359375	
537	5.36	114.7409973144531	1035.543579101562	-669.5968017578125	156.7640686035156	1032.970581054688	-556.4306640625	145.0164642333984	1120.097290039062	-598.7377319335938	-88.93104553222656	1297.596557617188	-509.2529296875	144.4579315185547	1247.515869140625	-605.2628173828125	79.05913543701172	1507.21044921875	-583.8355102539062	-69.28400421142578	1415.277587890625	-524.2738647460938	131.8455047607422	1367.29248046875	-675.2658081054688	139.0574340820312	1474.873657226562	-487.9632873535156	76.26924133300781	1475.385620117188	-402.7969055175781	147.8753356933594	1365.048706054688	-339.8294372558594	178.1138153076172	1160.319458007812	-305.2135620117188	222.8578796386719	1147.827758789062	-379.4529418945312	100.8704452514648	915.6311645507812	-307.1162414550781	160.6544036865234	908.6260986328125	-247.2660675048828	178.3942108154297	1053.597900390625	-278.7655334472656	132.5253601074219	726.3792724609375	-299.521240234375	157.6923828125	818.9815673828125	-241.570068359375	95.32418060302734	812.7423706054688	-271.6013488769531	-30.85628509521484	1455.517944335938	-719.4149780273438	-33.53218460083008	1390.998413085938	-787.7984008789062	-22.4536190032959	1116.138671875	-845.33349609375	38.46354675292969	1104.819702148438	-773.0576782226562	-135.4408874511719	895.06494140625	-779.5188598632812	-105.0238800048828	887.1937255859375	-857.6399536132812	-50.42333984375	1048.167846679688	-853.8477172851562	-144.479248046875	702.6930541992188	-784.647216796875	-177.2759552001953	774.84033203125	-792.0259399414062	-142.4111633300781	779.6507568359375	-855.0892944335938	-8.439862251281738	1667.936645507812	-619.6720581054688	-151.8348236083984	1676.301635742188	-443.3074951171875	-195.2533874511719	1671.101806640625	-533.140869140625	8.5872802734375	1672.557006835938	-480.30029296875	111.2689056396484	962.0459594726562	-392.5620727539062	-16.52063369750977	1003.975891113281	-734.4818115234375	-93.19748687744141	1041.782470703125	-664.1016845703125	1.503057599067688	1010.382568359375	-399.079345703125	6.893069267272949	480.0854797363281	-402.3370971679688	34.68003463745117	623.5826416015625	-386.9654846191406	344.193359375	147.1623382568359	-539.0574951171875	168.4196166992188	326.0839538574219	-456.540771484375	157.8282012939453	45.61139678955078	-565.1734619140625	206.4905395507812	84.95077514648438	-614.3822631835938	250.1914825439453	65.22734832763672	-513.1181030273438	373.3969116210938	202.1626129150391	-589.4669189453125	-125.8271026611328	523.8571166992188	-661.7556762695312	-105.5518417358398	787.4993896484375	-714.3534545898438	-66.56378936767578	27.77771949768066	-679.971435546875	-136.1541748046875	401.41943359375	-642.6969604492188	-237.0287475585938	42.11164474487305	-545.8486328125	-168.4817352294922	41.26150894165039	-532.6543579101562	-175.7114105224609	29.47543144226074	-655.010009765625	14.70908546447754	30.13315391540527	-653.24462890625	
538	5.37	107.8333435058594	1036.159545898438	-669.9803466796875	151.6037445068359	1033.597900390625	-557.5709228515625	139.1376495361328	1121.143432617188	-599.9493408203125	-93.75049591064453	1298.107421875	-506.4361877441406	138.0824432373047	1248.621459960938	-606.5535888671875	72.2742919921875	1508.099853515625	-583.9403686523438	-74.73992919921875	1415.855346679688	-521.7434692382812	123.7193756103516	1368.3828125	-676.3967895507812	134.0923309326172	1475.909912109375	-489.1771850585938	72.82732391357422	1476.298828125	-402.9276733398438	145.651611328125	1366.131958007812	-341.1800842285156	176.3764190673828	1161.465087890625	-306.5155944824219	219.9144134521484	1148.711791992188	-381.4310913085938	97.38671112060547	917.4904174804688	-306.5523071289062	158.0847015380859	910.0160522460938	-247.6526184082031	176.4458923339844	1054.7841796875	-279.7938842773438	126.7908248901367	727.9348754882812	-298.4909362792969	154.1177368164062	820.4764404296875	-241.5723724365234	91.49714660644531	814.8274536132812	-270.455078125	-39.9378662109375	1456.248168945312	-717.4810791015625	-43.87051391601562	1391.786376953125	-785.8584594726562	-34.31193161010742	1116.953491210938	-843.7971801757812	27.93723297119141	1105.425415039062	-772.7040405273438	-146.7982025146484	896.2411499023438	-775.989013671875	-117.7892913818359	888.3029174804688	-854.674560546875	-62.6366081237793	1049.075317382812	-851.8224487304688	-156.7231292724609	703.9522094726562	-781.0493774414062	-189.3042907714844	776.2111206054688	-787.8087158203125	-155.6089935302734	780.8761596679688	-851.4982299804688	-16.04450225830078	1668.590087890625	-618.2073974609375	-156.720947265625	1676.709228515625	-439.6947021484375	-201.4284973144531	1671.4052734375	-528.8624267578125	3.081951141357422	1673.285400390625	-479.1293640136719	108.4103622436523	963.2227172851562	-392.7994689941406	-24.25247764587402	1004.552307128906	-733.0232543945312	-100.3627090454102	1042.495727539062	-661.6261596679688	-1.378046870231628	1011.5458984375	-397.9427185058594	-3.317912101745605	482.4419555664062	-396.7206726074219	27.18362617492676	625.6216430664062	-383.0709228515625	330.3053588867188	149.4378509521484	-538.3992309570312	156.8546142578125	328.4039001464844	-453.8770141601562	142.6195373535156	46.94614028930664	-553.4518432617188	189.5039215087891	84.22010803222656	-606.02978515625	236.8176574707031	68.94728851318359	-505.538330078125	357.6681518554688	201.9014739990234	-592.2127685546875	-128.6956787109375	523.38720703125	-660.6282348632812	-111.7497711181641	787.5811157226562	-712.1693725585938	-66.57076263427734	27.89193916320801	-679.8892822265625	-137.9694366455078	400.9709777832031	-641.85107421875	-237.0734252929688	42.0163459777832	-545.7415771484375	-168.4800109863281	41.16012573242188	-532.5283813476562	-175.6774444580078	29.53200340270996	-654.9287719726562	14.7236795425415	30.25304222106934	-653.1796264648438	
539	5.38	101.0634002685547	1036.750854492188	-670.2195434570312	146.5116119384766	1034.225952148438	-558.575927734375	133.3161163330078	1122.170532226562	-601.0709228515625	-98.45199584960938	1298.633544921875	-503.5856628417969	131.7535247802734	1249.730224609375	-607.7970581054688	65.54539489746094	1508.981811523438	-583.9750366210938	-80.09079742431641	1416.443115234375	-519.1607055664062	115.5936050415039	1369.47314453125	-677.4610595703125	129.1717834472656	1476.936157226562	-490.3763732910156	69.47682952880859	1477.222290039062	-403.0508728027344	143.5154724121094	1367.203735351562	-342.5760803222656	174.7559814453125	1162.58447265625	-308.0323791503906	216.9207763671875	1149.53271484375	-383.6661376953125	93.75880432128906	919.4413452148438	-305.970947265625	155.4707794189453	911.4336547851562	-248.1623992919922	174.5421752929688	1055.951049804688	-281.014892578125	120.7901153564453	729.5791015625	-297.366943359375	150.427001953125	822.0076293945312	-241.6336669921875	87.36070251464844	817.0792846679688	-269.1674194335938	-48.97056579589844	1456.99462890625	-715.4122314453125	-54.15027236938477	1392.616821289062	-783.7758178710938	-46.12697601318359	1117.807739257812	-842.0933227539062	17.44664573669434	1106.069946289062	-772.19775390625	-158.0443878173828	897.455078125	-772.2965698242188	-130.5032043457031	889.4546508789062	-851.5213623046875	-74.79906463623047	1050.0205078125	-849.6241455078125	-168.9144134521484	705.2449340820312	-777.2786254882812	-201.1822662353516	777.61865234375	-783.4135131835938	-168.7624664306641	782.1358032226562	-847.7208251953125	-23.61732292175293	1669.27197265625	-616.61474609375	-161.4746704101562	1677.028930664062	-435.9339599609375	-207.5412445068359	1671.624877929688	-524.4147338867188	-2.353437900543213	1674.001342773438	-477.8680725097656	105.560791015625	964.4767456054688	-392.9339599609375	-31.80270767211914	1005.068908691406	-731.4793701171875	-107.3082733154297	1043.181762695312	-659.1351318359375	-4.229211330413818	1012.762084960938	-396.8219299316406	-13.19951915740967	484.9765319824219	-391.1184997558594	19.86993598937988	627.7862548828125	-379.1282043457031	315.6536254882812	150.64013671875	-537.5167236328125	145.1430358886719	330.3778076171875	-451.1585998535156	126.8288421630859	48.20204925537109	-541.6443481445312	171.9817810058594	83.12714385986328	-597.4248657226562	222.7609710693359	72.05134582519531	-498.0208740234375	341.2046203613281	200.5259094238281	-594.4801635742188	-131.3791351318359	522.9266357421875	-659.555419921875	-117.734260559082	787.6245727539062	-709.9568481445312	-66.57603454589844	28.01299667358398	-679.7979125976562	-139.6526031494141	400.5440979003906	-641.0713500976562	-237.1165466308594	41.91270065307617	-545.618896484375	-168.4732971191406	41.05853652954102	-532.4055786132812	-175.6436920166016	29.58870697021484	-654.850830078125	14.74417304992676	30.38375854492188	-653.1031494140625	
